<?xml version="1.0" encoding="UTF-8"?>
<svg width="286px" height="286px" viewBox="0 0 286 286" version="1.1" xmlns="http://www.w3.org/2000/svg" xmlns:xlink="http://www.w3.org/1999/xlink">
    <!-- Generator: Sketch 47.1 (45422) - http://www.bohemiancoding.com/sketch -->
    <title>Group 4</title>
    <desc>Created with Sketch.</desc>
    <defs>
        <path d="M57.76,85.72 C56.0799916,85.72 54.2600098,85.6800004 52.3,85.6 C50.3399902,85.5199996 48.3800098,85.4000008 46.42,85.24 C44.4599902,85.0799992 42.5200096,84.8800012 40.6,84.64 C38.6799904,84.3999988 36.920008,84.080002 35.32,83.68 L35.32,3.04 C36.920008,2.639998 38.6799904,2.3200012 40.6,2.08 C42.5200096,1.8399988 44.4599902,1.6400008 46.42,1.48 C48.3800098,1.3199992 50.3199904,1.2000004 52.24,1.12 C54.1600096,1.0399996 55.9599916,1 57.64,1 C62.440024,1 66.939979,1.3599964 71.14,2.08 C75.340021,2.8000036 78.9799846,4.0199914 82.06,5.74 C85.1400154,7.4600086 87.5599912,9.719986 89.32,12.52 C91.0800088,15.320014 91.96,18.7599796 91.96,22.84 C91.96,27.4000228 90.8800108,31.1399854 88.72,34.06 C86.5599892,36.9800146 83.680018,39.1599928 80.08,40.6 C84.9600244,42.0400072 88.8399856,44.3199844 91.72,47.44 C94.6000144,50.5600156 96.04,54.9599716 96.04,60.64 C96.04,68.9600416 92.9800306,75.219979 86.86,79.42 C80.7399694,83.620021 71.0400664,85.72 57.76,85.72 Z M46.84,46.24 L46.84,75.52 C47.7200044,75.6000004 48.759994,75.6799996 49.96,75.76 C51.0000052,75.8400004 52.219993,75.8999998 53.62,75.94 C55.020007,75.9800002 56.6399908,76 58.48,76 C61.9200172,76 65.1799846,75.7800022 68.26,75.34 C71.3400154,74.8999978 74.0399884,74.1200056 76.36,73 C78.6800116,71.8799944 80.539993,70.32001 81.94,68.32 C83.340007,66.31999 84.04,63.8000152 84.04,60.76 C84.04,58.0399864 83.5200052,55.7400094 82.48,53.86 C81.4399948,51.9799906 79.9400098,50.4800056 77.98,49.36 C76.0199902,48.2399944 73.6800136,47.4400024 70.96,46.96 C68.2399864,46.4799976 65.2000168,46.24 61.84,46.24 L46.84,46.24 Z M46.84,36.88 L59.08,36.88 C61.9600144,36.88 64.6799872,36.680002 67.24,36.28 C69.8000128,35.879998 72.0199906,35.1600052 73.9,34.12 C75.7800094,33.0799948 77.2599946,31.7200084 78.34,30.04 C79.4200054,28.3599916 79.96,26.2400128 79.96,23.68 C79.96,21.279988 79.4000056,19.2600082 78.28,17.62 C77.1599944,15.9799918 75.6200098,14.660005 73.66,13.66 C71.6999902,12.659995 69.4000132,11.9200024 66.76,11.44 C64.1199868,10.9599976 61.3200148,10.72 58.36,10.72 C55.3999852,10.72 53.0800084,10.7599996 51.4,10.84 C49.7199916,10.9200004 48.2000068,11.0399992 46.84,11.2 L46.84,36.88 Z" id="path-1"></path>
        <path d="M148.64,72.48 C147.839996,70.5599904 146.780007,68.1200148 145.46,65.16 C144.139993,62.1999852 142.720008,59.0000172 141.2,55.56 C139.679992,52.1199828 138.060009,48.5800182 136.34,44.94 C134.619991,41.2999818 133.000008,37.8600162 131.48,34.62 C129.959992,31.3799838 128.540007,28.4800128 127.22,25.92 C125.899993,23.3599872 124.840004,21.4000068 124.04,20.04 C123.159996,29.4800472 122.440003,39.699945 121.88,50.7 C121.319997,61.700055 120.840002,72.799944 120.44,84 L109.04,84 C109.360002,76.799964 109.719998,69.5400366 110.12,62.22 C110.520002,54.8999634 110.979997,47.7000354 111.5,40.62 C112.020003,33.5399646 112.579997,26.6400336 113.18,19.92 C113.780003,13.1999664 114.439996,6.84003 115.16,0.84 L125.36,0.84 C127.520011,4.3600176 129.839988,8.519976 132.32,13.32 C134.800012,18.120024 137.279988,23.1399738 139.76,28.38 C142.240012,33.6200262 144.639988,38.8599738 146.96,44.1 C149.280012,49.3400262 151.39999,54.1199784 153.32,58.44 C155.24001,54.1199784 157.359988,49.3400262 159.68,44.1 C162.000012,38.8599738 164.399988,33.6200262 166.88,28.38 C169.360012,23.1399738 171.839988,18.120024 174.32,13.32 C176.800012,8.519976 179.119989,4.3600176 181.28,0.84 L191.48,0.84 C194.200014,27.640134 196.239993,55.3598568 197.6,84 L186.2,84 C185.799998,72.799944 185.320003,61.700055 184.76,50.7 C184.199997,39.699945 183.480004,29.4800472 182.6,20.04 C181.799996,21.4000068 180.740007,23.3599872 179.42,25.92 C178.099993,28.4800128 176.680008,31.3799838 175.16,34.62 C173.639992,37.8600162 172.020009,41.2999818 170.3,44.94 C168.579991,48.5800182 166.960008,52.1199828 165.44,55.56 C163.919992,59.0000172 162.500007,62.1999852 161.18,65.16 C159.859993,68.1200148 158.800004,70.5599904 158,72.48 L148.64,72.48 Z" id="path-2"></path>
    </defs>
    <g id="Page-1" stroke="none" stroke-width="1" fill="none" fill-rule="evenodd">
        <g id="Group-4">
            <g id="Group-3">
                <g id="Group-2">
                    <circle id="Oval" fill="#299DD8" cx="143" cy="143" r="143"></circle>
                    <g id="Group" transform="translate(28.000000, 98.000000)">
                        <g id="Group-2-Copy" transform="translate(111.193214, 42.541518) rotate(-3.000000) translate(-111.193214, -42.541518) translate(1.193214, 28.041518)" stroke="#FFFFFF" stroke-width="6" stroke-linecap="round">
                            <path d="M3.71992175,28.4958886 L216.612714,17.4958886" id="Line"></path>
                            <path d="M3.82459367,12.4986295 L216.717386,1.49862953" id="Line-Copy"></path>
                        </g>
                        <g id="B">
                            <use fill="#FFFFFF" fill-rule="evenodd" xlink:href="#path-1"></use>
                            <use fill="black" fill-opacity="1" xlink:href="#path-1"></use>
                        </g>
                        <g id="M">
                            <use fill="#FFFFFF" fill-rule="evenodd" xlink:href="#path-2"></use>
                            <use fill="black" fill-opacity="1" xlink:href="#path-2"></use>
                        </g>
                    </g>
                </g>
            </g>
        </g>
    </g>
</svg>