<?xml version="1.0" encoding="UTF-8"?>
<svg width="199px" height="91px" viewBox="0 0 199 91" version="1.1" xmlns="http://www.w3.org/2000/svg" xmlns:xlink="http://www.w3.org/1999/xlink">
    <!-- Generator: Sketch 47.1 (45422) - http://www.bohemiancoding.com/sketch -->
    <title>Page 1</title>
    <desc>Created with Sketch.</desc>
    <defs>
        <path d="M62.787,0.305 L66.837,0.305 L66.837,4.386 L70.889,4.386 L70.889,8.468 L66.837,8.468 L66.837,12.549 L62.787,12.549 L62.787,8.468 L58.737,8.468 L58.737,4.386 L62.787,4.386 L62.787,0.305 Z M82.029,18.672 C82.029,22.618 85.201,25.814 89.118,25.814 C93.031,25.814 96.206,22.618 96.206,18.672 C96.206,14.727 93.032,11.528 89.118,11.528 C85.201,11.528 82.029,14.727 82.029,18.672 Z M65.825,18.672 C65.825,14.727 69,11.528 72.915,11.528 C76.83,11.528 80.004,14.727 80.004,18.672 C80.004,22.618 76.83,25.814 72.915,25.814 C69,25.814 65.825,22.618 65.825,18.672 Z M49.623,18.672 C49.623,14.727 52.796,11.528 56.711,11.528 C60.626,11.528 63.8,14.727 63.8,18.672 C63.8,22.618 60.626,25.814 56.711,25.814 C52.796,25.814 49.623,22.618 49.623,18.672 Z M33.419,18.672 C33.419,22.618 36.593,25.814 40.507,25.814 C44.423,25.814 47.597,22.618 47.597,18.672 C47.597,14.727 44.423,11.528 40.507,11.528 C36.593,11.528 33.419,14.727 33.419,18.672 Z M40.507,36.018 L89.118,36.018 L89.118,27.855 L40.507,27.855 L40.507,36.018 Z M109.371,44.182 L103.295,62.549 L97.22,44.182 L76.966,44.182 L76.966,76.835 L89.118,76.835 L89.119,52.344 L97.22,76.835 L109.371,76.835 L117.472,52.344 L117.472,76.835 L129.625,76.835 L129.625,44.182 L109.371,44.182 Z M40.507,44.182 L52.661,44.182 L52.661,68.602 L72.915,68.602 L72.915,76.835 L40.508,76.835 L24.305,76.835 L12.153,64.589 L12.153,76.835 L0,76.835 L0,44.182 L12.153,44.182 L12.153,56.428 L24.305,44.182 L36.457,44.182 L22.279,58.468 L40.507,76.834 L40.507,44.182 Z M40.507,76.834 L40.507,76.835 L40.508,76.835 L40.507,76.834 Z" id="path-1"></path>
        <path d="M33.248,0.862 C37.146,4.984 39.651,10.486 39.949,16.614 C40.603,30.169 30.228,41.686 16.781,42.345 C10.461,42.656 4.586,40.507 0.068,36.739 L0.041,36.769 C4.719,41.351 11.194,44.044 18.225,43.701 C31.674,43.043 42.048,31.523 41.393,17.977 C41.064,11.127 37.978,5.066 33.268,0.842 L33.248,0.862 Z" id="path-3"></path>
        <path d="M4.593,0.807 C4.127,0.983 3.822,1.319 3.682,1.843 C3.542,2.309 3.57,2.781 3.744,3.874 L3.822,4.306 C4.005,5.419 3.913,5.849 3.416,6.029 C2.797,6.271 2.228,5.856 1.885,4.923 C1.509,3.906 1.695,3.253 2.479,2.833 L2.169,2.009 C0.995,2.51 0.648,3.634 1.218,5.177 C1.747,6.596 2.734,7.232 3.776,6.834 C4.236,6.662 4.526,6.342 4.646,5.895 C4.731,5.537 4.723,5.236 4.597,4.392 L4.533,3.973 L4.469,3.491 C4.294,2.352 4.429,1.849 4.97,1.648 C5.641,1.392 6.262,1.852 6.64,2.86 C7.104,4.094 6.853,4.95 5.935,5.324 L6.243,6.159 C7.564,5.64 7.951,4.371 7.315,2.67 C6.839,1.395 6.076,0.689 5.213,0.689 C5.011,0.689 4.804,0.728 4.593,0.807 Z" id="path-5"></path>
        <path d="M2.091,1.423 L3.706,3.727 C3.918,4.046 3.967,4.102 4.174,4.36 C3.937,4.406 3.849,4.422 3.715,4.461 L3.38,4.547 L0.666,5.246 L0.284,6.282 L4.651,5.058 L7.055,5.967 L7.371,5.115 L4.966,4.207 L2.456,0.434 L2.091,1.423 Z" id="path-7"></path>
        <path d="M2.054,0.646 L3.608,0.433 L7.193,6.568 L5.546,6.648 L4.76,5.255 L2.216,5.614 L1.829,7.162 L0.257,7.534 L2.054,0.646 Z M2.715,3.36 L2.43,4.564 L4.265,4.306 L3.665,3.231 C3.331,2.645 3.203,2.38 3.014,1.926 C2.952,2.377 2.884,2.712 2.715,3.36 Z" id="path-9"></path>
        <path d="M0.129,6.763 L1.515,7.012 L2.082,4.982 C2.351,3.99 2.446,3.634 2.647,2.806 L2.822,2.039 C2.812,2.387 2.806,2.639 2.81,2.81 C2.814,3.017 2.827,3.319 2.845,3.718 C2.857,4.023 2.864,4.24 2.886,4.396 L3.183,7.431 L4.318,7.758 L6.158,5.278 C6.269,5.123 6.409,4.932 6.556,4.705 C6.908,4.194 7.062,3.978 7.444,3.341 L7.287,3.789 C7.195,4.062 7.112,4.323 7.028,4.575 C6.955,4.802 6.854,5.11 6.742,5.502 C6.624,5.889 6.536,6.193 6.479,6.408 L5.933,8.283 L7.244,8.814 L9.006,2.674 L7.019,1.946 L5.313,4.3 C5.165,4.518 5.002,4.756 4.811,5.04 C4.529,5.463 4.439,5.613 4.195,6.078 C4.24,5.261 4.24,4.685 4.177,3.997 L3.943,1.057 L1.835,0.602 L0.129,6.763 Z" id="path-11"></path>
        <path d="M17.972,3.756 C20.44,1.676 22.938,0.544 25.029,0.544 C25.081,0.544 25.134,0.544 25.186,0.546 C27.603,0.622 28.992,1.22 30.902,3.034 C30.902,3.034 30.857,3.096 30.83,3.098 C29.902,2.393 28.588,2.017 26.921,1.986 C25.406,1.965 23.214,2.305 19.68,5.168 C18.708,5.96 17.461,7.143 16.139,8.391 C16.139,8.391 15.059,9.414 15.017,9.412 L16.928,10.042 L17.367,10.191 C17.367,10.191 19.185,10.786 19.185,10.793 C20.578,9.441 21.911,8.157 22.93,7.394 C25.426,5.526 27.444,5.173 28.697,5.198 C29.968,5.226 31.501,5.467 33.252,7.037 C33.252,7.037 33.207,7.101 33.175,7.107 C32.515,6.612 30.892,6.499 29.959,6.54 C28.675,6.595 26.474,7.275 24.455,9.008 C23.621,9.722 22.694,10.566 21.608,11.541 L25.205,12.646 C25.205,12.646 25.69,12.778 25.676,12.784 L26.998,11.656 C28.987,10.081 30.933,9.3 32.782,9.34 C34.298,9.372 35.392,10.014 35.788,10.289 C36.27,10.618 37.079,11.176 37.033,12.173 C36.98,13.532 34.852,14.676 32.39,14.672 C30.693,14.671 29.173,14.482 27.469,14.061 L24.81,16.659 C23.384,18.088 21.769,19.705 20.14,21.144 C16.574,24.305 14.302,25.479 11.764,25.505 C9.524,25.518 8.241,24.391 7.201,23.455 C7.201,23.455 7.259,23.401 7.302,23.413 C8.268,24.007 9.442,24.093 10.255,24.055 C11.824,23.982 13.622,23.245 15.728,21.802 C17.008,20.93 18.204,19.866 20.401,17.802 L22.546,15.741 C22.546,15.741 25.007,13.393 25.048,13.394 C25.048,13.394 25.007,13.383 24.975,13.378 C24.975,13.378 21.046,12.132 21.046,12.124 L19.045,14.038 L16.195,16.736 C14.087,18.647 12.041,19.713 10.286,19.828 C8.444,19.95 7.387,19.396 6.278,18.432 C6.278,18.432 6.323,18.378 6.352,18.373 C6.667,18.577 7.638,18.889 9.016,18.613 C10.975,18.214 12.349,17.043 14.251,15.428 L14.359,15.336 C15.728,14.176 17.208,12.732 18.645,11.364 L17.565,11.022 C16.39,10.646 15.299,10.329 14.335,10.09 C13.067,11.264 11.445,12.726 10.099,13.632 C7.665,15.273 5.382,15.517 2.683,14.44 C2.167,14.233 0.488,13.447 0.489,11.947 C0.486,11.377 0.745,10.835 1.24,10.341 C2.547,9.055 5.371,8.264 8.433,8.33 C9.803,8.36 11.137,8.505 12.479,8.781 L14.166,7.219 C15.653,5.84 17.197,4.413 17.972,3.756 Z M4.115,13.942 C4.215,13.951 4.315,13.956 4.416,13.956 C6.615,13.956 9.049,11.823 10.531,10.524 L10.933,10.172 C10.933,10.172 11.607,9.572 11.661,9.568 C10.439,9.403 9.637,9.411 8.918,9.434 C2.606,9.616 2.472,12.385 2.469,12.501 C2.453,13.374 2.995,13.843 4.115,13.942 Z M28.291,13.316 C29.056,13.419 29.796,13.47 30.485,13.47 C31.527,13.47 32.449,13.352 33.147,13.117 C34.47,12.669 35.15,12.091 35.166,11.379 C35.179,10.693 34.521,10.509 33.966,10.482 C33.031,10.426 31.504,11.051 29.667,12.245 C29.286,12.487 28.834,12.847 28.291,13.316 Z" id="path-13"></path>
        <path d="M0.865,1.016 C1.022,0.598 1.411,0.341 1.83,0.341 C1.954,0.341 2.08,0.363 2.203,0.41 C2.746,0.617 3.013,1.21 2.811,1.751 C2.609,2.292 2.017,2.561 1.475,2.356 C0.931,2.151 0.664,1.558 0.865,1.016 Z M1.452,2.173 C1.575,2.233 1.707,2.263 1.837,2.263 C2.16,2.263 2.475,2.087 2.629,1.774 C2.844,1.335 2.65,0.807 2.225,0.596 C1.797,0.383 1.263,0.554 1.046,0.992 C0.831,1.433 1.025,1.962 1.452,2.173 Z M1.243,1.716 L1.744,0.695 L2.186,0.914 C2.37,1.004 2.524,1.145 2.415,1.364 C2.318,1.563 2.14,1.57 1.956,1.484 L2.033,2.108 L1.863,2.024 L1.79,1.401 L1.617,1.315 L1.385,1.788 L1.243,1.716 Z M1.858,1.258 C1.941,1.298 2.058,1.368 2.151,1.368 C2.201,1.368 2.244,1.347 2.271,1.291 C2.324,1.186 2.194,1.097 2.088,1.043 L1.816,0.91 L1.687,1.173 L1.858,1.258 Z" id="path-15"></path>
    </defs>
    <g id="Page-1" stroke="none" stroke-width="1" fill="none" fill-rule="evenodd">
        <g>
            <g id="Group-3">
                <mask id="mask-2" fill="white">
                    <use xlink:href="#path-1"></use>
                </mask>
                <g id="Clip-2"></g>
                <polygon id="Fill-1" fill="#15A0DA" mask="url(#mask-2)" points="-5 81.835 134.625 81.835 134.625 -4.695 -5 -4.695"></polygon>
            </g>
            <g id="Group-6" transform="translate(157.000000, 47.000000)">
                <mask id="mask-4" fill="white">
                    <use xlink:href="#path-3"></use>
                </mask>
                <g id="Clip-5"></g>
                <polygon id="Fill-4" fill="#213D78" mask="url(#mask-4)" points="-4.958 48.729 46.423 48.729 46.423 -4.159 -4.958 -4.159"></polygon>
            </g>
            <g id="Group-9" transform="translate(144.000000, 72.000000)">
                <mask id="mask-6" fill="white">
                    <use xlink:href="#path-5"></use>
                </mask>
                <g id="Clip-8"></g>
                <polygon id="Fill-7" fill="#213D78" mask="url(#mask-6)" points="-4.05 11.95 12.614 11.95 12.614 -4.312 -4.05 -4.312"></polygon>
            </g>
            <polygon id="Fill-10" fill="#213D78" points="145.9794 65.9487 143.4544 63.0127 143.4564 64.2177 146.1754 67.3027 146.3864 67.5307 146.5914 67.7597 146.2704 67.7587 145.9294 67.7497 143.4574 67.7537 143.4604 68.6597 149.7434 68.6597 149.7464 67.7477 147.5434 67.7467 146.5514 66.5967 149.7404 64.0507 149.7424 62.8927"></polygon>
            <g id="Group-13" transform="translate(144.000000, 52.000000)">
                <mask id="mask-8" fill="white">
                    <use xlink:href="#path-7"></use>
                </mask>
                <g id="Clip-12"></g>
                <polygon id="Fill-11" fill="#213D78" mask="url(#mask-8)" points="-4.716 11.282 12.372 11.282 12.372 -4.565 -4.716 -4.565"></polygon>
            </g>
            <polygon id="Fill-14" fill="#213D78" points="148.8855 48.2709 149.7655 49.0349 151.1255 47.4329 155.0215 50.7849 155.9975 49.6359 152.1025 46.2789 153.4665 44.6669 152.5805 43.9109"></polygon>
            <polygon id="Fill-15" fill="#213D78" points="156.9801 40.3626 160.0421 45.9026 164.6341 43.3306 164.0651 42.3066 160.7921 44.1456 160.0371 42.7776 162.9871 41.1296 162.4661 40.1806 159.5151 41.8336 158.8671 40.6496 162.0761 38.8486 161.5131 37.8236"></polygon>
            <g id="Group-18" transform="translate(167.000000, 35.000000)">
                <mask id="mask-10" fill="white">
                    <use xlink:href="#path-9"></use>
                </mask>
                <g id="Clip-17"></g>
                <polygon id="Fill-16" fill="#213D78" mask="url(#mask-10)" points="-4.743 12.535 12.193 12.535 12.193 -4.566 -4.743 -4.566"></polygon>
            </g>
            <g id="Group-21" transform="translate(177.000000, 35.000000)">
                <mask id="mask-12" fill="white">
                    <use xlink:href="#path-11"></use>
                </mask>
                <g id="Clip-20"></g>
                <polygon id="Fill-19" fill="#213D78" mask="url(#mask-12)" points="-4.871 13.815 14.006 13.815 14.006 -4.398 -4.871 -4.398"></polygon>
            </g>
            <g id="Group-24" transform="translate(154.000000, 52.000000)">
                <mask id="mask-14" fill="white">
                    <use xlink:href="#path-13"></use>
                </mask>
                <g id="Clip-23"></g>
                <polygon id="Fill-22" fill="#213D78" mask="url(#mask-14)" points="-4.511 30.505 42.036 30.505 42.036 -4.456 -4.511 -4.456"></polygon>
            </g>
            <g id="Group-27" transform="translate(186.000000, 38.000000)">
                <mask id="mask-16" fill="white">
                    <use xlink:href="#path-15"></use>
                </mask>
                <g id="Clip-26"></g>
                <polygon id="Fill-25" fill="#213D78" mask="url(#mask-16)" points="-4.202 7.424 7.878 7.424 7.878 -4.659 -4.202 -4.659"></polygon>
            </g>
        </g>
    </g>
</svg>